<?xml version="1.0" encoding="utf-8"?>
<svg version="1.1" xmlns:xlink="http://www.w3.org/1999/xlink" width="94px" height="84px" xmlns="http://www.w3.org/2000/svg">
  <g transform="matrix(1 0 0 1 -74 -71 )">
    <path d="M 74 71  L 168 71  L 168 155  L 74 155  L 74 71  " fill-rule="nonzero" fill="#cccccc" stroke="none" />
    <path d="M 80 77  L 162 77  L 162 149  L 80 149  L 80 77  " fill-rule="nonzero" fill="#ffffff" stroke="none" />
    <path d="M 129.18 96.2  C 125.652 96.2  122.88 93.428  122.88 89.9  C 122.88 86.372  125.652 83.6  129.18 83.6  C 132.708 83.6  135.48 86.372  135.48 89.9  C 135.48 93.428  132.708 96.2  129.18 96.2  " fill-rule="nonzero" fill="#cccccc" stroke="none" />
    <path d="M 82 147  L 82 109.6  L 101.5 92.6  L 128.8 110.540425531915  L 144.4 102.8  L 160 110.540425531915  L 160 147  L 82 147  " fill-rule="nonzero" fill="#169bd5" stroke="none" />
  </g>
</svg>