<?xml version="1.0" encoding="utf-8"?>
<svg version="1.1" xmlns:xlink="http://www.w3.org/1999/xlink" width="300px" height="170px" xmlns="http://www.w3.org/2000/svg">
  <g transform="matrix(1 0 0 1 -151 -703 )">
    <path d="M 151 703  L 451 703  L 451 873  L 151 873  L 151 703  " fill-rule="nonzero" fill="#cccccc" stroke="none" />
    <path d="M 163 715  L 439 715  L 439 861  L 163 861  L 163 715  " fill-rule="nonzero" fill="#ffffff" stroke="none" />
    <path d="M 319.75 754  C 312.61 754  307 748.39  307 741.25  C 307 734.11  312.61 728.5  319.75 728.5  C 326.89 728.5  332.5 734.11  332.5 741.25  C 332.5 748.39  326.89 754  319.75 754  " fill-rule="nonzero" fill="#cccccc" stroke="none" />
    <path d="M 168 857  L 168 781.65  L 234.75 747.4  L 328.2 810.42  L 381.6 767.95  L 435 810.42  L 435 857  L 168 857  " fill-rule="nonzero" fill="#169bd5" stroke="none" />
  </g>
</svg>