<?xml version="1.0" encoding="utf-8"?>
<svg version="1.1" xmlns:xlink="http://www.w3.org/1999/xlink" width="94px" height="28px" xmlns="http://www.w3.org/2000/svg">
  <defs>
    <mask fill="white" id="clip1">
      <path d="M 0 23  L 0 5  C 0 2.19999999999999  2.2 0  5 0  L 89 0  C 91.8 0  94 2.19999999999999  94 5  L 94 23  C 94 25.8  91.8 28  89 28  L 44 28  L 5 28  C 2.2 28  0 25.8  0 23  Z " fill-rule="evenodd" />
    </mask>
  </defs>
  <g transform="matrix(1 0 0 1 -65 -375 )">
    <path d="M 0 23  L 0 5  C 0 2.19999999999999  2.2 0  5 0  L 89 0  C 91.8 0  94 2.19999999999999  94 5  L 94 23  C 94 25.8  91.8 28  89 28  L 44 28  L 5 28  C 2.2 28  0 25.8  0 23  Z " fill-rule="nonzero" fill="#ffffff" stroke="none" transform="matrix(1 0 0 1 65 375 )" />
    <path d="M 0 23  L 0 5  C 0 2.19999999999999  2.2 0  5 0  L 89 0  C 91.8 0  94 2.19999999999999  94 5  L 94 23  C 94 25.8  91.8 28  89 28  L 44 28  L 5 28  C 2.2 28  0 25.8  0 23  Z " stroke-width="2" stroke="#797979" fill="none" transform="matrix(1 0 0 1 65 375 )" mask="url(#clip1)" />
  </g>
</svg>